<svg id="5994ed5a-6d07-4e54-9fd8-7d3a74b64815" data-name="Layer 1" xmlns="http://www.w3.org/2000/svg" xmlns:xlink="http://www.w3.org/1999/xlink" width="36" height="36" viewBox="0 0 36 36"><defs><linearGradient id="6b209e2b-2cd5-45da-b18e-1296316c0df4" x1="18" y1="36.095" x2="18" y2="0.15" gradientUnits="userSpaceOnUse"><stop offset="0" stop-color="#3d3f58"/><stop offset="1" stop-color="#777e92"/></linearGradient></defs><title>icon</title><circle cx="18" cy="18" r="18" fill="url(#6b209e2b-2cd5-45da-b18e-1296316c0df4)"/><path d="M23.753,15.736V11.652a5.707,5.707,0,1,0-11.414,0v3.989a7.875,7.875,0,1,0,11.414.1Zm-3.536,5.555A2.222,2.222,0,0,1,18,23.34a2.172,2.172,0,0,1-.487-.06,2.017,2.017,0,0,1-1.117-.618,2.229,2.229,0,0,1-.577-1.1v-.006a1.328,1.328,0,0,1-.023-.149.4.4,0,0,1-.012-.083c0-.036-.006-.066-.006-.1s-.006-.077-.006-.113V19.352a.419.419,0,0,1,.4-.469H18a2.224,2.224,0,0,1,2.222,2.229A1.771,1.771,0,0,1,20.217,21.291Zm1.4-7.175a7.871,7.871,0,0,0-7.14-.047V11.652a3.57,3.57,0,1,1,7.14,0Z" fill="#fff"/></svg>