<svg id="df4b2402-454d-4f89-9eca-25eb5d7d3e1d" data-name="Layer 1" xmlns="http://www.w3.org/2000/svg" width="16" height="16" viewBox="0 0 16 16"><title>icon-small</title><path d="M11.995,6.8V3.963a3.963,3.963,0,1,0-7.926,0v2.77a5.468,5.468,0,1,0,7.926.066ZM9.539,10.656A1.543,1.543,0,0,1,8,12.079a1.512,1.512,0,0,1-.339-.042,1.4,1.4,0,0,1-.776-.429,1.548,1.548,0,0,1-.4-.763v0a.934.934,0,0,1-.016-.1.278.278,0,0,1-.008-.057c0-.025,0-.046,0-.071s0-.053,0-.078V9.31a.291.291,0,0,1,.28-.326H8a1.544,1.544,0,0,1,1.543,1.548A1.232,1.232,0,0,1,9.539,10.656Zm.971-4.982a5.465,5.465,0,0,0-4.958-.032V3.963a2.479,2.479,0,0,1,4.958,0Z"/></svg>